<svg width="245" height="42" viewBox="0 0 245 42" fill="none" xmlns="http://www.w3.org/2000/svg">
<rect x="42" y="2" width="115" height="35" fill="#F4BC33"/>
<path d="M32.7753 19.3853C32.7753 19.8117 32.7543 20.2373 32.7113 20.6613C32.6691 21.086 32.6051 21.5067 32.52 21.9248C32.4357 22.343 32.3303 22.7562 32.2039 23.1645C32.0775 23.5719 31.9309 23.9735 31.7648 24.3669C31.5988 24.7611 31.4126 25.1462 31.2078 25.5222C31.003 25.8982 30.7797 26.2635 30.5378 26.618C30.2967 26.9726 30.038 27.3139 29.7616 27.6436C29.486 27.9734 29.1944 28.289 28.8868 28.5907C28.58 28.8915 28.2581 29.1783 27.9218 29.4485C27.5856 29.7187 27.2366 29.9724 26.8751 30.2096C26.5136 30.446 26.141 30.665 25.7576 30.8658C25.3741 31.0674 24.9822 31.2492 24.5802 31.412C24.1782 31.5757 23.7695 31.7186 23.3532 31.8426C22.9377 31.9666 22.5163 32.0699 22.0899 32.1533C21.6634 32.236 21.2336 32.2988 20.8013 32.3409C20.3681 32.3823 19.9349 32.4029 19.5 32.4029C19.0652 32.4029 18.6311 32.3823 18.1988 32.3409C17.7656 32.2988 17.3366 32.236 16.9102 32.1533C16.4838 32.0699 16.0624 31.9666 15.646 31.8426C15.2297 31.7186 14.821 31.5757 14.4198 31.412C14.0178 31.2492 13.6251 31.0674 13.2416 30.8658C12.8582 30.665 12.4857 30.446 12.1241 30.2096C11.7626 29.9724 11.4137 29.7187 11.0782 29.4485C10.742 29.1783 10.42 28.8915 10.1124 28.5907C9.8048 28.289 9.51321 27.9734 9.23762 27.6436C8.96203 27.3139 8.7033 26.9726 8.46143 26.618C8.2204 26.2635 7.99706 25.8982 7.79143 25.5222C7.58664 25.1462 7.40123 24.7611 7.23436 24.3669C7.06833 23.9735 6.92169 23.5719 6.79612 23.1645C6.6697 22.7562 6.56436 22.343 6.47924 21.9248C6.39412 21.5067 6.33091 21.086 6.28793 20.6613C6.24579 20.2373 6.22388 19.8117 6.22388 19.3853C6.22388 18.9589 6.24579 18.5341 6.28793 18.1093C6.33091 17.6854 6.39412 17.2639 6.47924 16.8457C6.56436 16.4276 6.6697 16.0143 6.79612 15.6061C6.92169 15.1987 7.06833 14.7979 7.23436 14.4037C7.40123 14.0095 7.58664 13.6244 7.79143 13.2483C7.99706 12.8732 8.2204 12.5079 8.46143 12.1534C8.7033 11.7988 8.96203 11.4567 9.23762 11.1269C9.51321 10.7972 9.8048 10.4815 10.1124 10.1807C10.42 9.87907 10.742 9.59313 11.0782 9.32207C11.4137 9.05183 11.7626 8.79812 12.1241 8.56177C12.4857 8.32459 12.8582 8.10559 13.2416 7.90477C13.6251 7.70395 14.0178 7.52132 14.4198 7.35851C14.821 7.19488 15.2297 7.05191 15.646 6.92795C16.0624 6.80399 16.4838 6.70069 16.9102 6.61722C17.3366 6.53458 17.7656 6.47177 18.1988 6.43045C18.6311 6.38831 19.0652 6.36765 19.5 6.36765C19.9349 6.36765 20.3681 6.38831 20.8013 6.43045C21.2336 6.47177 21.6634 6.53458 22.0899 6.61722C22.5163 6.70069 22.9377 6.80399 23.3532 6.92795C23.7695 7.05191 24.1782 7.19488 24.5802 7.35851C24.9822 7.52132 25.3741 7.70395 25.7576 7.90477C26.141 8.10559 26.5136 8.32459 26.8751 8.56177C27.2366 8.79812 27.5856 9.05183 27.9218 9.32207C28.2581 9.59313 28.58 9.87907 28.8868 10.1807C29.1944 10.4815 29.486 10.7972 29.7616 11.1269C30.038 11.4567 30.2967 11.7988 30.5378 12.1534C30.7797 12.5079 31.003 12.8732 31.2078 13.2483C31.4126 13.6244 31.5988 14.0095 31.7648 14.4037C31.9309 14.7979 32.0775 15.1987 32.2039 15.6061C32.3303 16.0143 32.4357 16.4276 32.52 16.8457C32.6051 17.2639 32.6691 17.6854 32.7113 18.1093C32.7543 18.5341 32.7753 18.9589 32.7753 19.3853Z" fill="#F4BC33"/>
<path d="M16.8789 4.71653L19.4999 0.264648L22.1201 4.71653H16.8789Z" fill="#F4BC33"/>
<path d="M9.75084 7.96764L9.75 2.82654L14.29 5.3975L9.75084 7.96764Z" fill="#F4BC33"/>
<path d="M5.2344 14.2773L2.61255 9.82538H7.85541L5.2344 14.2773Z" fill="#F4BC33"/>
<path d="M4.54083 21.9555L0 19.3862L4.54083 16.816V21.9555Z" fill="#F4BC33"/>
<path d="M7.85541 28.9453L2.61255 28.9469L5.2344 24.4942L7.85541 28.9453Z" fill="#F4BC33"/>
<path d="M14.29 33.374L9.75 35.945L9.75084 30.8039L14.29 33.374Z" fill="#F4BC33"/>
<path d="M22.1201 34.0541L19.4999 38.5068L16.8789 34.0541H22.1201Z" fill="#F4BC33"/>
<path d="M29.2491 30.8039L29.2499 35.945L24.7091 33.374L29.2491 30.8039Z" fill="#F4BC33"/>
<path d="M33.7648 24.4942L36.3875 28.9461L31.1447 28.9452L33.7648 24.4942Z" fill="#F4BC33"/>
<path d="M34.4584 16.816L39.0001 19.3854L34.4584 21.9555V16.816Z" fill="#F4BC33"/>
<path d="M31.1447 9.82541L36.3867 9.82458L33.7648 14.2773L31.1447 9.82541Z" fill="#F4BC33"/>
<path d="M24.7091 5.39747L29.2491 2.82568V7.96761L24.7091 5.39747Z" fill="#F4BC33"/>
<path d="M60.7363 26.707C60.7363 26.0039 60.6191 25.377 60.3848 24.8262C60.1504 24.2754 59.7637 23.7832 59.2246 23.3496C58.6973 22.9043 57.9824 22.4941 57.0801 22.1191C56.1895 21.7324 55.0762 21.3516 53.7402 20.9766C52.4629 20.6133 51.3086 20.2148 50.2773 19.7812C49.2461 19.3477 48.3613 18.8496 47.623 18.2871C46.8965 17.7246 46.3398 17.0684 45.9531 16.3184C45.5664 15.5566 45.373 14.6719 45.373 13.6641C45.373 12.6797 45.584 11.7832 46.0059 10.9746C46.4277 10.166 47.0195 9.46875 47.7812 8.88281C48.5547 8.29688 49.4629 7.8457 50.5059 7.5293C51.5605 7.21289 52.7148 7.05469 53.9688 7.05469C55.7617 7.05469 57.3086 7.39453 58.6094 8.07422C59.9219 8.75391 60.9355 9.67383 61.6504 10.834C62.377 11.9824 62.7402 13.2715 62.7402 14.7012H60.5781C60.5781 13.5879 60.3145 12.5977 59.7871 11.7305C59.2715 10.8516 58.5215 10.166 57.5371 9.67383C56.5645 9.16992 55.375 8.91797 53.9688 8.91797C52.5625 8.91797 51.3789 9.13477 50.418 9.56836C49.4688 9.99023 48.748 10.5586 48.2559 11.2734C47.7754 11.9766 47.5352 12.7617 47.5352 13.6289C47.5352 14.2383 47.6523 14.8008 47.8867 15.3164C48.1211 15.8203 48.502 16.2949 49.0293 16.7402C49.5684 17.1738 50.2773 17.584 51.1562 17.9707C52.0352 18.3457 53.1191 18.7031 54.4082 19.043C55.7676 19.418 56.9746 19.834 58.0293 20.291C59.084 20.748 59.9746 21.2754 60.7012 21.873C61.4277 22.459 61.9785 23.1445 62.3535 23.9297C62.7285 24.7148 62.916 25.6289 62.916 26.6719C62.916 27.7148 62.6934 28.6523 62.248 29.4844C61.8145 30.3047 61.1992 31.002 60.4023 31.5762C59.6172 32.1504 58.6855 32.5898 57.6074 32.8945C56.541 33.1992 55.375 33.3516 54.1094 33.3516C52.9727 33.3516 51.8418 33.2051 50.7168 32.9121C49.5918 32.6191 48.5605 32.168 47.623 31.5586C46.6973 30.9375 45.9531 30.1406 45.3906 29.168C44.8398 28.1953 44.5645 27.0352 44.5645 25.6875H46.709C46.709 26.7656 46.9258 27.6738 47.3594 28.4121C47.793 29.1504 48.3672 29.748 49.082 30.2051C49.8086 30.6621 50.6055 30.9961 51.4727 31.207C52.3516 31.4062 53.2305 31.5059 54.1094 31.5059C55.457 31.5059 56.623 31.3066 57.6074 30.9082C58.6035 30.5098 59.3711 29.9531 59.9102 29.2383C60.4609 28.5117 60.7363 27.668 60.7363 26.707ZM86.4883 18.832V21.5742C86.4883 23.3672 86.2539 24.9902 85.7852 26.4434C85.3281 27.8848 84.6602 29.1211 83.7812 30.1523C82.9141 31.1836 81.8711 31.9746 80.6523 32.5254C79.4336 33.0762 78.0625 33.3516 76.5391 33.3516C75.0508 33.3516 73.6914 33.0762 72.4609 32.5254C71.2422 31.9746 70.1934 31.1836 69.3145 30.1523C68.4355 29.1211 67.7559 27.8848 67.2754 26.4434C66.7949 24.9902 66.5547 23.3672 66.5547 21.5742V18.832C66.5547 17.0391 66.7891 15.4219 67.2578 13.9805C67.7383 12.5273 68.418 11.2852 69.2969 10.2539C70.1758 9.22266 71.2246 8.43164 72.4434 7.88086C73.6621 7.33008 75.0156 7.05469 76.5039 7.05469C78.0273 7.05469 79.3984 7.33008 80.6172 7.88086C81.8359 8.43164 82.8848 9.22266 83.7637 10.2539C84.6426 11.2852 85.3164 12.5273 85.7852 13.9805C86.2539 15.4219 86.4883 17.0391 86.4883 18.832ZM84.3438 21.5742V18.7969C84.3438 17.2852 84.168 15.9258 83.8164 14.7188C83.4766 13.5117 82.9668 12.4805 82.2871 11.625C81.6191 10.7695 80.7988 10.1133 79.8262 9.65625C78.8535 9.19922 77.7461 8.9707 76.5039 8.9707C75.2969 8.9707 74.2129 9.19922 73.252 9.65625C72.291 10.1133 71.4707 10.7695 70.791 11.625C70.123 12.4805 69.6074 13.5117 69.2441 14.7188C68.8926 15.9258 68.7168 17.2852 68.7168 18.7969V21.5742C68.7168 23.0977 68.8926 24.4688 69.2441 25.6875C69.6074 26.8945 70.1289 27.9316 70.8086 28.7988C71.4883 29.6543 72.3086 30.3105 73.2695 30.7676C74.2422 31.2246 75.332 31.4531 76.5391 31.4531C77.793 31.4531 78.9004 31.2246 79.8613 30.7676C80.8223 30.3105 81.6367 29.6543 82.3047 28.7988C82.9727 27.9316 83.4766 26.8945 83.8164 25.6875C84.168 24.4688 84.3438 23.0977 84.3438 21.5742ZM106.756 31.1543V33H93.4844V31.1543H106.756ZM94.1172 7.40625V33H91.9551V7.40625H94.1172ZM119.693 8.93555L110.834 33H108.584L118.252 7.40625H119.816L119.693 8.93555ZM127.744 33L118.867 8.93555L118.744 7.40625H120.309L129.994 33H127.744ZM126.162 23.9648V25.8281H112.574V23.9648H126.162ZM133.738 7.40625H142.053C143.822 7.40625 145.357 7.69336 146.658 8.26758C147.959 8.8418 148.961 9.69141 149.664 10.8164C150.379 11.9297 150.736 13.3008 150.736 14.9297C150.736 16.1367 150.479 17.2324 149.963 18.2168C149.459 19.2012 148.762 20.0273 147.871 20.6953C146.98 21.3516 145.949 21.8027 144.777 22.0488L144.021 22.3301H135.145L135.109 20.4844H142.545C143.881 20.4844 144.994 20.2266 145.885 19.7109C146.775 19.1953 147.443 18.5156 147.889 17.6719C148.346 16.8164 148.574 15.9023 148.574 14.9297C148.574 13.7695 148.322 12.7676 147.818 11.9238C147.326 11.0684 146.594 10.4121 145.621 9.95508C144.648 9.49805 143.459 9.26953 142.053 9.26953H135.9V33H133.738V7.40625ZM149.541 33L142.914 21.5566L145.234 21.5391L151.844 32.7715V33H149.541ZM180.268 31.1543V33H166.996V31.1543H180.268ZM167.629 7.40625V33H165.467V7.40625H167.629ZM187.088 7.40625V33H184.926V7.40625H187.088ZM194.717 7.40625H196.896L206.354 29.9414L215.828 7.40625H217.99L207.18 33H205.527L194.717 7.40625ZM194.049 7.40625H195.965L196.193 21.8203V33H194.049V7.40625ZM216.777 7.40625H218.693V33H216.531V21.8203L216.777 7.40625ZM233.898 22.5762H226.604V20.7305H233.898C235.422 20.7305 236.658 20.4844 237.607 19.9922C238.568 19.4883 239.266 18.8086 239.699 17.9531C240.145 17.0977 240.367 16.1367 240.367 15.0703C240.367 14.0273 240.145 13.0664 239.699 12.1875C239.266 11.3086 238.568 10.6055 237.607 10.0781C236.658 9.53906 235.422 9.26953 233.898 9.26953H227.359V33H225.197V7.40625H233.898C235.773 7.40625 237.35 7.72852 238.627 8.37305C239.916 9.01758 240.889 9.91406 241.545 11.0625C242.201 12.2109 242.529 13.5352 242.529 15.0352C242.529 16.6055 242.201 17.959 241.545 19.0957C240.889 20.2207 239.922 21.082 238.645 21.6797C237.367 22.2773 235.785 22.5762 233.898 22.5762Z" fill="white"/>
</svg>
